<?xml version="1.0" ?><!DOCTYPE svg  PUBLIC '-//W3C//DTD SVG 1.1//EN'  'http://www.w3.org/Graphics/SVG/1.1/DTD/svg11.dtd'><svg enable-background="new 0 0 512 512" id="Layer_1" version="1.1" viewBox="0 0 512 512" xml:space="preserve" xmlns="http://www.w3.org/2000/svg" xmlns:xlink="http://www.w3.org/1999/xlink"><g><g><circle cx="256" cy="256" fill="#F45151" r="244.4"/></g></g><g><path d="M201.7,235.9c0,0.6-0.1,1-0.1,1.5c0,11.4,0,36.1,0,36.1s47.5,0,50.1,0c0,3.7-4.4,18.6-18.4,28.1   c-8.2,5.5-17.4,8.1-27.2,8.7c-6.9,0.4-13.7-0.3-20.3-2.4c-20.9-6.7-36.4-25.6-38.6-48.6c-0.5-5.7-0.2-11.4,1.1-17   c6.2-27.2,32-47.4,61.5-43c13.1,1.9,20.6,7.4,27.5,13.2c9.1-9.1,18-18,27.2-27.2c-2.2-1.6-7.4-6.9-16.6-12.2   c-13.7-7.9-28.5-11.9-44.4-12.1c-3-0.1-6,0.1-8.9,0.3c-5.2,0.2-10.4,1.1-15.4,2.4c-20.2,5.1-37,15.8-50.2,32   c-12.6,15.6-19.4,33.5-20.7,53.4c-0.6,8.5,0.1,16.9,2,25.2c5.3,23.2,17.4,41.9,36.6,55.9c14.8,10.9,31.6,16.7,49.9,17.7   c10.3,0.6,20.6-0.4,30.6-3c18.7-4.9,34.3-14.7,46-30.2c16.9-22.5,21-51.4,16-78.8C260.2,235.9,231,235.9,201.7,235.9z" fill="#FFFFFF"/><polygon fill="#FFFFFF" points="402.8,237.1 371.1,237.1 371.1,205.4 371.1,204.5 370.1,204.5 346.5,204.5 345.5,204.5    345.5,205.4 345.5,237.1 313.8,237.1 312.9,237.1 312.9,238 312.9,261.7 312.9,262.7 313.8,262.7 345.5,262.7 345.5,294.3    345.5,295.3 346.5,295.3 370.1,295.3 371.1,295.3 371.1,294.3 371.1,262.7 402.8,262.7 403.7,262.7 403.7,261.7 403.7,238    403.7,237.1  "/></g><g><path d="M255.3,474.1c-58.5,0-113.5-22.8-154.9-64.2S36.2,313.5,36.2,255S59,141.5,100.3,100.1   c41.4-41.4,96.4-64.2,154.9-64.2s113.5,22.8,154.9,64.2s64.2,96.4,64.2,154.9s-22.8,113.5-64.2,154.9S313.8,474.1,255.3,474.1z    M255.3,51.9C143.3,51.9,52.2,143,52.2,255s91.1,203.1,203.1,203.1s203-91.1,203-203.1S367.2,51.9,255.3,51.9z" fill="#FFFFFF"/></g></svg>